<svg xmlns="http://www.w3.org/2000/svg" viewBox="0 0 512 512" style="enable-background:new 0 0 512 512" xml:space="preserve"><path d="M328 36H216c-4.424 0-8 3.584-8 8s3.576 8 8 8h112c4.424 0 8-3.584 8-8s-3.576-8-8-8z"/><path d="M288 36c-4.424 0-8 3.584-8 8v40c0 4.416 3.576 8 8 8s8-3.584 8-8V44c0-4.416-3.576-8-8-8z"/><path d="M288 76h-32c-4.424 0-8 3.584-8 8s3.576 8 8 8h32c4.424 0 8-3.584 8-8s-3.576-8-8-8z"/><path d="M256 36c-4.424 0-8 3.584-8 8v40c0 4.416 3.576 8 8 8s8-3.584 8-8V44c0-4.416-3.576-8-8-8zm-40 160h-96c-4.424 0-8 3.584-8 8s3.576 8 8 8h96c4.424 0 8-3.584 8-8s-3.576-8-8-8zm112-16c-4.424 0-8 3.584-8 8v136c0 4.424 3.576 8 8 8s8-3.576 8-8V188c0-4.416-3.576-8-8-8zm176 200h-23.832c-4.424 0-8 3.576-8 8s3.576 8 8 8H504c4.424 0 8-3.576 8-8s-3.576-8-8-8z"/><path d="M504 380c-4.424 0-8 3.576-8 8v32c0 4.424 3.576 8 8 8s8-3.576 8-8v-32c0-4.424-3.576-8-8-8zM80 412h-.024l-56 .168A7.993 7.993 0 0 0 16 420.192a7.998 7.998 0 0 0 8 7.976h.024l56-.168A7.993 7.993 0 0 0 88 419.976 7.998 7.998 0 0 0 80 412zm416-72h-8c-4.424 0-8 3.576-8 8s3.576 8 8 8h8c4.424 0 8-3.576 8-8s-3.576-8-8-8z"/><path d="M496 284c-4.424 0-8 3.576-8 8v96c0 4.424 3.576 8 8 8s8-3.576 8-8v-96c0-4.424-3.576-8-8-8zm-48-104H328c-4.424 0-8 3.584-8 8s3.576 8 8 8h120c4.424 0 8-3.584 8-8s-3.576-8-8-8z"/><path d="m503.264 288.648-48-104c-1.848-4.008-6.584-5.76-10.616-3.912-4.016 1.848-5.76 6.608-3.912 10.616l48 104a8.003 8.003 0 0 0 10.616 3.912c4.016-1.848 5.76-6.608 3.912-10.616zM24 380c-4.424 0-8 3.576-8 8v32.504c0 4.424 3.576 8 8 8s8-3.584 8-8V388c0-4.424-3.576-8-8-8zM8 276c-4.424 0-8 3.576-8 8v104c0 4.424 3.576 8 8 8s8-3.576 8-8V284c0-4.424-3.576-8-8-8z"/><path d="M328 276H8c-4.424 0-8 3.576-8 8s3.576 8 8 8h320c4.424 0 8-3.576 8-8s-3.576-8-8-8zM48 380H8c-4.424 0-8 3.576-8 8s3.576 8 8 8h40c4.424 0 8-3.576 8-8s-3.576-8-8-8zm80-16c-30.872 0-56 25.128-56 56s25.128 56 56 56 56-25.128 56-56-25.128-56-56-56zm0 96c-22.056 0-40-17.944-40-40s17.944-40 40-40 40 17.944 40 40-17.944 40-40 40z"/><path d="M128 396c-13.232 0-24 10.768-24 24s10.768 24 24 24 24-10.768 24-24-10.768-24-24-24zm0 32c-4.416 0-8-3.584-8-8s3.584-8 8-8 8 3.584 8 8-3.584 8-8 8zm264-32c-13.232 0-24 10.768-24 24s10.768 24 24 24 24-10.768 24-24-10.768-24-24-24zm0 32c-4.416 0-8-3.584-8-8s3.584-8 8-8 8 3.584 8 8-3.584 8-8 8z"/><path d="M392 364c-30.872 0-56 25.128-56 56s25.128 56 56 56 56-25.128 56-56-25.128-56-56-56zm0 96c-22.056 0-40-17.944-40-40s17.944-40 40-40 40 17.944 40 40-17.944 40-40 40z"/><path d="M344.2 412H176c-4.424 0-8 3.576-8 8s3.576 8 8 8h168.2c4.424 0 8-3.576 8-8s-3.576-8-8-8zm159.8 0h-64c-4.424 0-8 3.576-8 8s3.576 8 8 8h64c4.424 0 8-3.576 8-8s-3.576-8-8-8zm-8-128h-96c-4.424 0-8 3.576-8 8s3.576 8 8 8h96c4.424 0 8-3.576 8-8s-3.576-8-8-8z"/><path d="M400 284c-13.232 0-24-10.768-24-24 0-4.416-3.576-8-8-8s-8 3.584-8 8c0 22.056 17.944 40 40 40 4.424 0 8-3.576 8-8s-3.576-8-8-8z"/><path d="M368 180c-4.424 0-8 3.584-8 8v72c0 4.424 3.576 8 8 8s8-3.576 8-8v-72c0-4.416-3.576-8-8-8zM328 36c-4.424 0-8 3.584-8 8v240c0 4.424 3.576 8 8 8s8-3.576 8-8V44c0-4.416-3.576-8-8-8zm-112 0c-4.424 0-8 3.584-8 8v240c0 4.424 3.576 8 8 8s8-3.576 8-8V44c0-4.416-3.576-8-8-8zm-96 64c-4.424 0-8 3.584-8 8v176c0 4.424 3.576 8 8 8s8-3.576 8-8V108c0-4.416-3.576-8-8-8zm48 96c-4.424 0-8 3.584-8 8v24c0 4.416 3.576 8 8 8s8-3.584 8-8v-24c0-4.416-3.576-8-8-8z"/><path d="M216 100h-96c-4.424 0-8 3.584-8 8s3.576 8 8 8h96c4.424 0 8-3.584 8-8s-3.576-8-8-8z"/><path d="M168 100c-4.424 0-8 3.584-8 8v16c0 4.416 3.576 8 8 8s8-3.584 8-8v-16c0-4.416-3.576-8-8-8zM24 156c-4.424 0-8 3.584-8 8v120c0 4.424 3.576 8 8 8s8-3.576 8-8V164c0-4.416-3.576-8-8-8z"/><path d="M120 156H24c-4.424 0-8 3.584-8 8s3.576 8 8 8h96c4.424 0 8-3.584 8-8s-3.576-8-8-8z"/><path d="M56 156c-4.424 0-8 3.584-8 8v24c0 4.416 3.576 8 8 8s8-3.584 8-8v-24c0-4.416-3.576-8-8-8z"/><path d="M88 180H56c-4.424 0-8 3.584-8 8s3.576 8 8 8h32c4.424 0 8-3.584 8-8s-3.576-8-8-8z"/><path d="M88 156c-4.424 0-8 3.584-8 8v24c0 4.416 3.576 8 8 8s8-3.584 8-8v-24c0-4.416-3.576-8-8-8z"/></svg>