<svg xmlns="http://www.w3.org/2000/svg" height="512pt" viewBox="0 0 512 512" width="512pt"><path d="M437.02 74.98C388.668 26.63 324.379 0 256 0 187.617 0 123.332 26.629 74.98 74.98 26.63 123.332 0 187.621 0 256s26.629 132.668 74.98 181.02C123.332 485.37 187.617 512 256 512c68.379 0 132.668-26.629 181.02-74.98C485.37 388.668 512 324.379 512 256s-26.629-132.668-74.98-181.02ZM256 482C131.383 482 30 380.617 30 256S131.383 30 256 30s226 101.383 226 226-101.383 226-226 226Zm0 0" style="stroke:none;fill-rule:nonzero;fill:#000;fill-opacity:1"/><path d="M396.453 240.871H356.29c-8.285 0-15 6.719-15 15 0 8.285 6.715 15 15 15h4.156C353.195 322.027 309.125 361.5 256 361.5c-53.172 0-97.27-39.54-104.465-90.758h4.309c8.281 0 15-6.715 15-15s-6.719-15-15-15h-40.168c-8.285 0-15 6.715-15 15s6.715 15 15 15h5.629C128.675 338.547 186.265 391.5 256 391.5c69.688 0 127.25-52.883 134.68-120.629h5.773c8.285 0 15-6.715 15-15 0-8.281-6.715-15-15-15Zm-60.117-58.238c8.281 0 15-6.715 15-15v-16.067c0-8.285-6.719-15-15-15-8.285 0-15 6.715-15 15v16.067c0 8.285 6.715 15 15 15Zm-160.672 0c8.285 0 15-6.715 15-15v-16.067c0-8.285-6.715-15-15-15-8.281 0-15 6.715-15 15v16.067c0 8.285 6.719 15 15 15Zm0 0" style="stroke:none;fill-rule:nonzero;fill:#000;fill-opacity:1"/></svg>